<svg width="24.000000" height="24.000000" viewBox="0 0 24 24" fill="none" xmlns="http://www.w3.org/2000/svg" xmlns:xlink="http://www.w3.org/1999/xlink">
	<desc>
			Created with Pixso.
	</desc>
	<defs>
		<clipPath id="clip19_378">
			<rect id="360-number" rx="-0.500000" width="23.000000" height="23.000000" transform="translate(0.500000 0.500000)" fill="white" fill-opacity="0"/>
		</clipPath>
	</defs>
	<rect id="360-number" rx="-0.500000" width="23.000000" height="23.000000" transform="translate(0.500000 0.500000)" fill="#FFFFFF" fill-opacity="0"/>
	<g clip-path="url(#clip19_378)">
		<path id="Vector" d="M14 6C14 5.73 13.89 5.48 13.7 5.29C13.51 5.1 13.26 5 13 5L11 5C10.73 5 10.48 5.1 10.29 5.29C10.1 5.48 10 5.73 10 6L10 12C10 12.26 10.1 12.51 10.29 12.7C10.48 12.89 10.73 13 11 13L13 13C13.26 13 13.51 12.89 13.7 12.7C13.89 12.51 14 12.26 14 12L14 10C14 9.73 13.89 9.48 13.7 9.29C13.51 9.1 13.26 9 13 9L10 9" stroke="#191919" stroke-opacity="1.000000" stroke-width="2.000000" stroke-linejoin="round" stroke-linecap="round"/>
		<path id="Vector" d="M3 5L5.5 5C5.89 5 6.27 5.15 6.56 5.43C6.84 5.72 7 6.1 7 6.5L7 7.5C7 7.89 6.84 8.27 6.56 8.56C6.27 8.84 5.89 9 5.5 9L4 9M5.5 9C5.89 9 6.27 9.15 6.56 9.43C6.84 9.72 7 10.1 7 10.5L7 11.5C7 11.89 6.84 12.27 6.56 12.56C6.27 12.84 5.89 13 5.5 13L3 13" stroke="#191919" stroke-opacity="1.000000" stroke-width="2.000000" stroke-linejoin="round" stroke-linecap="round"/>
		<path id="Vector" d="M17 11C17 11.53 17.21 12.03 17.58 12.41C17.96 12.78 18.46 13 19 13C19.53 13 20.03 12.78 20.41 12.41C20.78 12.03 21 11.53 21 11L21 7C21 6.46 20.78 5.96 20.41 5.58C20.03 5.21 19.53 5 19 5C18.46 5 17.96 5.21 17.58 5.58C17.21 5.96 17 6.46 17 7L17 11Z" stroke="#191919" stroke-opacity="1.000000" stroke-width="2.000000" stroke-linejoin="round"/>
		<path id="Vector" d="M3 16C3 17.65 7.03 19 12 19C16.96 19 21 17.65 21 16" stroke="#191919" stroke-opacity="1.000000" stroke-width="2.000000" stroke-linejoin="round" stroke-linecap="round"/>
	</g>
</svg>
