<svg width="24.000000" height="24.000000" viewBox="0 0 24 24" fill="none" xmlns="http://www.w3.org/2000/svg" xmlns:xlink="http://www.w3.org/1999/xlink">
	<desc>
			Created with Pixso.
	</desc>
	<defs>
		<clipPath id="clip327_96">
			<rect id="adjustments-horizontal 1" rx="-0.500000" width="23.000000" height="23.000000" transform="translate(0.500000 0.500000)" fill="white" fill-opacity="0"/>
		</clipPath>
	</defs>
	<rect id="adjustments-horizontal 1" rx="-0.500000" width="23.000000" height="23.000000" transform="translate(0.500000 0.500000)" fill="#FFFFFF" fill-opacity="0"/>
	<g clip-path="url(#clip327_96)">
		<path id="Vector" d="M12.58 7.41C12.96 7.78 13.46 8 14 8C14.53 8 15.03 7.78 15.41 7.41C15.78 7.03 16 6.53 16 6C16 5.46 15.78 4.96 15.41 4.58C15.03 4.21 14.53 4 14 4C13.46 4 12.96 4.21 12.58 4.58C12.21 4.96 12 5.46 12 6C12 6.53 12.21 7.03 12.58 7.41Z" stroke="#191919" stroke-opacity="1.000000" stroke-width="2.000000" stroke-linejoin="round"/>
		<path id="Vector" d="M4 6L12 6" stroke="#191919" stroke-opacity="1.000000" stroke-width="2.000000" stroke-linejoin="round" stroke-linecap="round"/>
		<path id="Vector" d="M16 6L20 6" stroke="#191919" stroke-opacity="1.000000" stroke-width="2.000000" stroke-linejoin="round" stroke-linecap="round"/>
		<path id="Vector" d="M6.58 13.41C6.96 13.78 7.46 14 8 14C8.53 14 9.03 13.78 9.41 13.41C9.78 13.03 10 12.53 10 12C10 11.46 9.78 10.96 9.41 10.58C9.03 10.21 8.53 10 8 10C7.46 10 6.96 10.21 6.58 10.58C6.21 10.96 6 11.46 6 12C6 12.53 6.21 13.03 6.58 13.41Z" stroke="#191919" stroke-opacity="1.000000" stroke-width="2.000000" stroke-linejoin="round"/>
		<path id="Vector" d="M4 12L6 12" stroke="#191919" stroke-opacity="1.000000" stroke-width="2.000000" stroke-linejoin="round" stroke-linecap="round"/>
		<path id="Vector" d="M10 12L20 12" stroke="#191919" stroke-opacity="1.000000" stroke-width="2.000000" stroke-linejoin="round" stroke-linecap="round"/>
		<path id="Vector" d="M15.58 19.41C15.96 19.78 16.46 20 17 20C17.53 20 18.03 19.78 18.41 19.41C18.78 19.03 19 18.53 19 18C19 17.46 18.78 16.96 18.41 16.58C18.03 16.21 17.53 16 17 16C16.46 16 15.96 16.21 15.58 16.58C15.21 16.96 15 17.46 15 18C15 18.53 15.21 19.03 15.58 19.41Z" stroke="#191919" stroke-opacity="1.000000" stroke-width="2.000000" stroke-linejoin="round"/>
		<path id="Vector" d="M4 18L15 18" stroke="#191919" stroke-opacity="1.000000" stroke-width="2.000000" stroke-linejoin="round" stroke-linecap="round"/>
		<path id="Vector" d="M19 18L20 18" stroke="#191919" stroke-opacity="1.000000" stroke-width="2.000000" stroke-linejoin="round" stroke-linecap="round"/>
	</g>
</svg>
