<svg width="24.000000" height="24.000000" viewBox="0 0 24 24" fill="none" xmlns="http://www.w3.org/2000/svg" xmlns:xlink="http://www.w3.org/1999/xlink">
	<desc>
			Created with Pixso.
	</desc>
	<defs>
		<clipPath id="clip53_1265">
			<rect id="brand-instagram" rx="-0.500000" width="23.000000" height="23.000000" transform="translate(0.500000 0.500000)" fill="white" fill-opacity="0"/>
		</clipPath>
	</defs>
	<rect id="brand-instagram" rx="-0.500000" width="23.000000" height="23.000000" transform="translate(0.500000 0.500000)" fill="#FFFFFF" fill-opacity="0"/>
	<g clip-path="url(#clip53_1265)">
		<path id="Vector" d="M5.17 5.17C5.92 4.42 6.93 4 8 4L16 4C17.06 4 18.07 4.42 18.82 5.17C19.57 5.92 20 6.93 20 8L20 16C20 17.06 19.57 18.07 18.82 18.82C18.07 19.57 17.06 20 16 20L8 20C6.93 20 5.92 19.57 5.17 18.82C4.42 18.07 4 17.06 4 16L4 8C4 6.93 4.42 5.92 5.17 5.17Z" stroke="#191919" stroke-opacity="1.000000" stroke-width="2.000000" stroke-linejoin="round"/>
		<path id="Vector" d="M9.87 14.12C10.44 14.68 11.2 15 12 15C12.79 15 13.55 14.68 14.12 14.12C14.68 13.55 15 12.79 15 12C15 11.2 14.68 10.44 14.12 9.87C13.55 9.31 12.79 9 12 9C11.2 9 10.44 9.31 9.87 9.87C9.31 10.44 9 11.2 9 12C9 12.79 9.31 13.55 9.87 14.12Z" stroke="#191919" stroke-opacity="1.000000" stroke-width="2.000000" stroke-linejoin="round"/>
		<path id="Vector" d="M16.5 7.5L16.5 7.5" stroke="#191919" stroke-opacity="1.000000" stroke-width="2.000000" stroke-linejoin="round" stroke-linecap="round"/>
	</g>
</svg>
