<svg width="24.000000" height="24.000000" viewBox="0 0 24 24" fill="none" xmlns="http://www.w3.org/2000/svg" xmlns:xlink="http://www.w3.org/1999/xlink">
	<desc>
			Created with Pixso.
	</desc>
	<defs>
		<clipPath id="clip19_390">
			<rect id="copy" rx="-0.500000" width="23.000000" height="23.000000" transform="translate(0.500000 0.500000)" fill="white" fill-opacity="0"/>
		</clipPath>
	</defs>
	<rect id="copy" rx="-0.500000" width="23.000000" height="23.000000" transform="translate(0.500000 0.500000)" fill="#FFFFFF" fill-opacity="0"/>
	<g clip-path="url(#clip19_390)">
		<path id="Vector" d="M7.78 7.78C8.28 7.28 8.95 7 9.66 7L18.33 7C18.68 7 19.03 7.06 19.35 7.2C19.67 7.33 19.97 7.53 20.21 7.78C20.46 8.02 20.66 8.32 20.79 8.64C20.93 8.96 21 9.31 21 9.66L21 18.33C21 18.68 20.93 19.03 20.79 19.35C20.66 19.67 20.46 19.97 20.21 20.21C19.97 20.46 19.67 20.66 19.35 20.79C19.03 20.93 18.68 21 18.33 21L9.66 21C9.31 21 8.96 20.93 8.64 20.79C8.32 20.66 8.02 20.46 7.78 20.21C7.53 19.97 7.33 19.67 7.2 19.35C7.06 19.03 7 18.68 7 18.33L7 9.66C7 8.95 7.28 8.28 7.78 7.78Z" stroke="#191919" stroke-opacity="1.000000" stroke-width="2.000000" stroke-linejoin="round"/>
		<path id="Vector" d="M4.01 16.73C3.7 16.56 3.45 16.3 3.27 16C3.09 15.69 3 15.35 3 15L3 5C3 3.89 3.9 3 5 3L15 3C15.75 3 16.15 3.38 16.5 4" stroke="#191919" stroke-opacity="1.000000" stroke-width="2.000000" stroke-linejoin="round" stroke-linecap="round"/>
	</g>
</svg>
