<svg width="24.000000" height="24.000000" viewBox="0 0 24 24" fill="none" xmlns="http://www.w3.org/2000/svg" xmlns:xlink="http://www.w3.org/1999/xlink">
	<desc>
			Created with Pixso.
	</desc>
	<defs>
		<clipPath id="clip19_381">
			<rect id="gas-station" rx="-0.500000" width="23.000000" height="23.000000" transform="translate(0.500000 0.500000)" fill="white" fill-opacity="0"/>
		</clipPath>
	</defs>
	<rect id="gas-station" rx="-0.500000" width="23.000000" height="23.000000" transform="translate(0.500000 0.500000)" fill="#FFFFFF" fill-opacity="0"/>
	<g clip-path="url(#clip19_381)">
		<path id="Vector" d="M14 11L15 11C15.53 11 16.03 11.21 16.41 11.58C16.78 11.96 17 12.46 17 13L17 16C17 16.39 17.15 16.77 17.43 17.06C17.72 17.34 18.1 17.5 18.5 17.5C18.89 17.5 19.27 17.34 19.56 17.06C19.84 16.77 20 16.39 20 16L20 9L17 6" stroke="#191919" stroke-opacity="1.000000" stroke-width="2.000000" stroke-linejoin="round" stroke-linecap="round"/>
		<path id="Vector" d="M4 20L4 6C4 5.46 4.21 4.96 4.58 4.58C4.96 4.21 5.46 4 6 4L12 4C12.53 4 13.03 4.21 13.41 4.58C13.78 4.96 14 5.46 14 6L14 20" stroke="#191919" stroke-opacity="1.000000" stroke-width="2.000000" stroke-linejoin="round" stroke-linecap="round"/>
		<path id="Vector" d="M3 20L15 20" stroke="#191919" stroke-opacity="1.000000" stroke-width="2.000000" stroke-linejoin="round" stroke-linecap="round"/>
		<path id="Vector" d="M18 7L18 8C18 8.26 18.1 8.51 18.29 8.7C18.48 8.89 18.73 9 19 9L20 9" stroke="#191919" stroke-opacity="1.000000" stroke-width="2.000000" stroke-linejoin="round" stroke-linecap="round"/>
		<path id="Vector" d="M4 11L14 11" stroke="#191919" stroke-opacity="1.000000" stroke-width="2.000000" stroke-linejoin="round" stroke-linecap="round"/>
	</g>
</svg>
