<svg width="24.000000" height="24.000000" viewBox="0 0 24 24" fill="none" xmlns="http://www.w3.org/2000/svg" xmlns:xlink="http://www.w3.org/1999/xlink">
	<desc>
			Created with Pixso.
	</desc>
	<defs>
		<clipPath id="clip19_489">
			<rect id="heart-fill 1" rx="-0.500000" width="23.000000" height="23.000000" transform="translate(0.500000 0.500000)" fill="white" fill-opacity="0"/>
		</clipPath>
	</defs>
	<rect id="heart-fill 1" rx="-0.500000" width="23.000000" height="23.000000" transform="translate(0.500000 0.500000)" fill="#FFFFFF" fill-opacity="0"/>
	<g clip-path="url(#clip19_489)">
		<path id="Vector" d="M6.97 3.07C7.86 2.92 8.77 2.97 9.63 3.21C10.49 3.46 11.29 3.9 11.96 4.49L12 4.53L12.03 4.5C12.67 3.93 13.43 3.51 14.24 3.27C15.06 3.02 15.92 2.95 16.77 3.06L17.01 3.09C18.08 3.28 19.08 3.75 19.9 4.45C20.72 5.15 21.33 6.07 21.68 7.09C22.02 8.12 22.08 9.22 21.85 10.28C21.63 11.33 21.11 12.31 20.38 13.1L20.2 13.29L20.15 13.33L12.7 20.71C12.53 20.88 12.3 20.98 12.06 20.99C11.82 21.01 11.58 20.94 11.39 20.79L11.29 20.71L3.8 13.28C3 12.51 2.44 11.53 2.17 10.46C1.89 9.39 1.92 8.26 2.25 7.2C2.58 6.14 3.2 5.2 4.03 4.47C4.86 3.74 5.88 3.26 6.97 3.07Z" fill="#191919" fill-opacity="1.000000" fill-rule="nonzero"/>
	</g>
</svg>
