<svg width="48.000000" height="48.000000" viewBox="0 0 48 48" fill="none" xmlns="http://www.w3.org/2000/svg" xmlns:xlink="http://www.w3.org/1999/xlink">
	<desc>
			Created with Pixso.
	</desc>
	<defs>
		<clipPath id="clip53_1270">
			<rect id="icons-google" rx="-0.500000" width="47.000000" height="47.000000" transform="translate(0.500000 0.500000)" fill="white" fill-opacity="0"/>
		</clipPath>
	</defs>
	<rect id="icons-google" rx="-0.500000" width="47.000000" height="47.000000" transform="translate(0.500000 0.500000)" fill="#FFFFFF" fill-opacity="0"/>
	<g clip-path="url(#clip53_1270)">
		<path id="Vector" d="M43.61 20.08L42 20.08L42 20L24 20L24 28L35.3 28C33.65 32.65 29.22 36 24 36C17.37 36 12 30.62 12 24C12 17.37 17.37 12 24 12C27.05 12 29.84 13.15 31.96 15.03L37.61 9.38C34.04 6.05 29.26 4 24 4C12.95 4 4 12.95 4 24C4 35.04 12.95 44 24 44C35.04 44 44 35.04 44 24C44 22.65 43.86 21.35 43.61 20.08Z" fill="#FBC02D" fill-opacity="1.000000" fill-rule="nonzero"/>
		<path id="Vector" d="M6.3 14.69L12.87 19.51C14.65 15.1 18.96 12 24 12C27.05 12 29.84 13.15 31.96 15.03L37.61 9.38C34.04 6.05 29.26 4 24 4C16.31 4 9.65 8.33 6.3 14.69Z" fill="#E53935" fill-opacity="1.000000" fill-rule="nonzero"/>
		<path id="Vector" d="M24 44C29.16 44 33.86 42.02 37.4 38.8L31.21 33.57C29.21 35.09 26.71 36 24 36C18.79 36 14.38 32.68 12.71 28.05L6.19 33.07C9.5 39.55 16.22 44 24 44Z" fill="#4CAF50" fill-opacity="1.000000" fill-rule="nonzero"/>
		<path id="Vector" d="M43.61 20.08L43.59 20L42 20L24 20L24 28L35.3 28C34.51 30.23 33.07 32.16 31.21 33.57L31.21 33.56L37.4 38.8C36.97 39.2 44 34 44 24C44 22.65 43.86 21.35 43.61 20.08Z" fill="#1565C0" fill-opacity="1.000000" fill-rule="nonzero"/>
	</g>
</svg>
