<svg width="24.000000" height="24.000000" viewBox="0 0 24 24" fill="none" xmlns="http://www.w3.org/2000/svg" xmlns:xlink="http://www.w3.org/1999/xlink">
	<desc>
			Created with Pixso.
	</desc>
	<defs>
		<clipPath id="clip45_983">
			<rect id="select 1" rx="-0.500000" width="23.000000" height="23.000000" transform="translate(0.500000 0.500000)" fill="white" fill-opacity="0"/>
		</clipPath>
	</defs>
	<rect id="select 1" rx="-0.500000" width="23.000000" height="23.000000" transform="translate(0.500000 0.500000)" fill="#FFFFFF" fill-opacity="0"/>
	<g clip-path="url(#clip45_983)">
		<path id="Vector" d="M3.58 3.58C3.96 3.21 4.46 3 5 3L19 3C19.53 3 20.03 3.21 20.41 3.58C20.78 3.96 21 4.46 21 5L21 19C21 19.53 20.78 20.03 20.41 20.41C20.03 20.78 19.53 21 19 21L5 21C4.46 21 3.96 20.78 3.58 20.41C3.21 20.03 3 19.53 3 19L3 5C3 4.46 3.21 3.96 3.58 3.58Z" stroke="#191919" stroke-opacity="1.000000" stroke-width="2.000000" stroke-linejoin="round"/>
		<path id="Vector" d="M9 11L12 14L15 11" stroke="#191919" stroke-opacity="1.000000" stroke-width="2.000000" stroke-linejoin="round" stroke-linecap="round"/>
	</g>
</svg>
