<svg width="24.000000" height="24.000000" viewBox="0 0 24 24" fill="none" xmlns="http://www.w3.org/2000/svg" xmlns:xlink="http://www.w3.org/1999/xlink">
	<desc>
			Created with Pixso.
	</desc>
	<defs>
		<clipPath id="clip37_350">
			<rect id="adjustments-search" rx="-0.500000" width="23.000000" height="23.000000" transform="translate(0.500000 0.500000)" fill="white" fill-opacity="0"/>
		</clipPath>
	</defs>
	<rect id="adjustments-search" rx="-0.500000" width="23.000000" height="23.000000" transform="translate(0.500000 0.500000)" fill="#FFFFFF" fill-opacity="0"/>
	<g clip-path="url(#clip37_350)">
		<path id="Vector" d="M4.58 11.41C4.96 11.78 5.46 12 6 12C6.53 12 7.03 11.78 7.41 11.41C7.78 11.03 8 10.53 8 10C8 9.46 7.78 8.96 7.41 8.58C7.03 8.21 6.53 8 6 8C5.46 8 4.96 8.21 4.58 8.58C4.21 8.96 4 9.46 4 10C4 10.53 4.21 11.03 4.58 11.41Z" stroke="#191919" stroke-opacity="1.000000" stroke-width="2.000000" stroke-linejoin="round"/>
		<path id="Vector" d="M6 4L6 8" stroke="#191919" stroke-opacity="1.000000" stroke-width="2.000000" stroke-linejoin="round" stroke-linecap="round"/>
		<path id="Vector" d="M6 12L6 20" stroke="#191919" stroke-opacity="1.000000" stroke-width="2.000000" stroke-linejoin="round" stroke-linecap="round"/>
		<path id="Vector" d="M12 14C11.56 14 11.13 14.14 10.79 14.4C10.44 14.66 10.19 15.03 10.07 15.45C9.95 15.87 9.97 16.32 10.13 16.73C10.29 17.13 10.58 17.47 10.95 17.7" stroke="#191919" stroke-opacity="1.000000" stroke-width="2.000000" stroke-linejoin="round" stroke-linecap="round"/>
		<path id="Vector" d="M12 4L12 14" stroke="#191919" stroke-opacity="1.000000" stroke-width="2.000000" stroke-linejoin="round" stroke-linecap="round"/>
		<path id="Vector" d="M16.58 8.41C16.96 8.78 17.46 9 18 9C18.53 9 19.03 8.78 19.41 8.41C19.78 8.03 20 7.53 20 7C20 6.46 19.78 5.96 19.41 5.58C19.03 5.21 18.53 5 18 5C17.46 5 16.96 5.21 16.58 5.58C16.21 5.96 16 6.46 16 7C16 7.53 16.21 8.03 16.58 8.41Z" stroke="#191919" stroke-opacity="1.000000" stroke-width="2.000000" stroke-linejoin="round"/>
		<path id="Vector" d="M18 4L18 5" stroke="#191919" stroke-opacity="1.000000" stroke-width="2.000000" stroke-linejoin="round" stroke-linecap="round"/>
		<path id="Vector" d="M18 9L18 11" stroke="#191919" stroke-opacity="1.000000" stroke-width="2.000000" stroke-linejoin="round" stroke-linecap="round"/>
		<path id="Vector" d="M15.87 20.12C16.44 20.68 17.2 21 18 21C18.79 21 19.55 20.68 20.12 20.12C20.68 19.55 21 18.79 21 18C21 17.2 20.68 16.44 20.12 15.87C19.55 15.31 18.79 15 18 15C17.2 15 16.44 15.31 15.87 15.87C15.31 16.44 15 17.2 15 18C15 18.79 15.31 19.55 15.87 20.12Z" stroke="#191919" stroke-opacity="1.000000" stroke-width="2.000000" stroke-linejoin="round"/>
		<path id="Vector" d="M20.2 20.2L22 22" stroke="#191919" stroke-opacity="1.000000" stroke-width="2.000000" stroke-linejoin="round" stroke-linecap="round"/>
	</g>
</svg>
