<svg width="24.000000" height="24.000000" viewBox="0 0 24 24" fill="none" xmlns="http://www.w3.org/2000/svg" xmlns:xlink="http://www.w3.org/1999/xlink">
	<desc>
			Created with Pixso.
	</desc>
	<defs>
		<clipPath id="clip19_382">
			<rect id="automatic-gearbox" rx="-0.500000" width="23.000000" height="23.000000" transform="translate(0.500000 0.500000)" fill="white" fill-opacity="0"/>
		</clipPath>
	</defs>
	<rect id="automatic-gearbox" rx="-0.500000" width="23.000000" height="23.000000" transform="translate(0.500000 0.500000)" fill="#FFFFFF" fill-opacity="0"/>
	<g clip-path="url(#clip19_382)">
		<path id="Vector" d="M17 21L18 21C18.53 21 19.03 20.78 19.41 20.41C19.78 20.03 20 19.53 20 19C20 18.46 19.78 17.96 19.41 17.58C19.03 17.21 18.53 17 18 17L17 17L17 21Z" stroke="#191919" stroke-opacity="1.000000" stroke-width="2.000000" stroke-linejoin="round"/>
		<path id="Vector" d="M17 11L18.5 11C18.89 11 19.27 10.84 19.56 10.56C19.84 10.27 20 9.89 20 9.5C20 9.1 19.84 8.72 19.56 8.43C19.27 8.15 18.89 8 18.5 8L17 8L17 13" stroke="#191919" stroke-opacity="1.000000" stroke-width="2.000000" stroke-linejoin="round" stroke-linecap="round"/>
		<path id="Vector" d="M3.58 6.41C3.96 6.78 4.46 7 5 7C5.53 7 6.03 6.78 6.41 6.41C6.78 6.03 7 5.53 7 5C7 4.46 6.78 3.96 6.41 3.58C6.03 3.21 5.53 3 5 3C4.46 3 3.96 3.21 3.58 3.58C3.21 3.96 3 4.46 3 5C3 5.53 3.21 6.03 3.58 6.41Z" stroke="#191919" stroke-opacity="1.000000" stroke-width="2.000000" stroke-linejoin="round"/>
		<path id="Vector" d="M5 7L5 10C5 10.26 5.1 10.51 5.29 10.7C5.48 10.89 5.73 11 6 11L9 11L9 18C9 18.26 9.1 18.51 9.29 18.7C9.48 18.89 9.73 19 10 19L13 19" stroke="#191919" stroke-opacity="1.000000" stroke-width="2.000000" stroke-linejoin="round" stroke-linecap="round"/>
		<path id="Vector" d="M9 11L13 11" stroke="#191919" stroke-opacity="1.000000" stroke-width="2.000000" stroke-linejoin="round" stroke-linecap="round"/>
	</g>
</svg>
