<svg width="24.000000" height="24.000000" viewBox="0 0 24 24" fill="none" xmlns="http://www.w3.org/2000/svg" xmlns:xlink="http://www.w3.org/1999/xlink">
	<desc>
			Created with Pixso.
	</desc>
	<defs>
		<clipPath id="clip327_1024">
			<rect id="battery-vertical-4" rx="0.000000" width="23.000000" height="23.000000" transform="translate(0.500000 0.500000)" fill="white" fill-opacity="0"/>
		</clipPath>
	</defs>
	<rect id="battery-vertical-4" rx="0.000000" width="23.000000" height="23.000000" transform="translate(0.500000 0.500000)" fill="#FFFFFF" fill-opacity="0"/>
	<g clip-path="url(#clip327_1024)">
		<path id="Vector" d="M7 7C7 6.46 7.21 5.96 7.58 5.58C7.96 5.21 8.46 5 9 5L9.5 5C9.63 5 9.75 4.94 9.85 4.85C9.94 4.75 10 4.63 10 4.5C10 4.36 10.05 4.24 10.14 4.14C10.24 4.05 10.36 4 10.5 4L13.5 4C13.63 4 13.75 4.05 13.85 4.14C13.94 4.24 14 4.36 14 4.5C14 4.63 14.05 4.75 14.14 4.85C14.24 4.94 14.36 5 14.5 5L15 5C15.53 5 16.03 5.21 16.41 5.58C16.78 5.96 17 6.46 17 7L17 18C17 18.53 16.78 19.03 16.41 19.41C16.03 19.78 15.53 20 15 20L9 20C8.46 20 7.96 19.78 7.58 19.41C7.21 19.03 7 18.53 7 18L7 7Z" stroke="#999999" stroke-opacity="1.000000" stroke-width="2.000000" stroke-linejoin="round"/>
		<path id="Vector" d="M10 17L14 17" stroke="#999999" stroke-opacity="1.000000" stroke-width="2.000000" stroke-linejoin="round" stroke-linecap="round"/>
		<path id="Vector" d="M10 14L14 14" stroke="#999999" stroke-opacity="1.000000" stroke-width="2.000000" stroke-linejoin="round" stroke-linecap="round"/>
		<path id="Vector" d="M10 11L14 11" stroke="#999999" stroke-opacity="1.000000" stroke-width="2.000000" stroke-linejoin="round" stroke-linecap="round"/>
		<path id="Vector" d="M10 8L14 8" stroke="#999999" stroke-opacity="1.000000" stroke-width="2.000000" stroke-linejoin="round" stroke-linecap="round"/>
	</g>
</svg>
