<svg width="24.000000" height="24.000000" viewBox="0 0 24 24" fill="none" xmlns="http://www.w3.org/2000/svg" xmlns:xlink="http://www.w3.org/1999/xlink">
	<desc>
			Created with Pixso.
	</desc>
	<defs>
		<clipPath id="clip53_1268">
			<rect id="brand-whatsapp" rx="-0.500000" width="23.000000" height="23.000000" transform="translate(0.500000 0.500000)" fill="white" fill-opacity="0"/>
		</clipPath>
	</defs>
	<rect id="brand-whatsapp" rx="-0.500000" width="23.000000" height="23.000000" transform="translate(0.500000 0.500000)" fill="#FFFFFF" fill-opacity="0"/>
	<g clip-path="url(#clip53_1268)">
		<path id="Vector" d="M4.65 17.2C3.38 15.4 2.82 13.21 3.06 11.03C3.29 8.85 4.32 6.84 5.94 5.36C7.56 3.88 9.66 3.05 11.85 3.01C14.05 2.98 16.18 3.74 17.84 5.16C19.51 6.59 20.6 8.57 20.91 10.74C21.22 12.91 20.73 15.12 19.53 16.95C18.32 18.78 16.49 20.11 14.38 20.69C12.27 21.27 10.01 21.06 8.05 20.1L3 21L4.65 17.2Z" stroke="#191919" stroke-opacity="1.000000" stroke-width="2.000000" stroke-linejoin="round"/>
		<path id="Vector" d="M9.14 10.35C9.24 10.44 9.36 10.5 9.5 10.5C9.63 10.5 9.75 10.44 9.85 10.35C9.94 10.25 10 10.13 10 10L10 9C10 8.86 9.94 8.74 9.85 8.64C9.75 8.55 9.63 8.5 9.5 8.5C9.36 8.5 9.24 8.55 9.14 8.64C9.05 8.74 9 8.86 9 9L9 10C9 10.13 9.05 10.25 9.14 10.35ZM9 10C9 11.32 9.52 12.59 10.46 13.53C11.4 14.47 12.67 15 14 15L15 15C15.13 15 15.25 14.94 15.35 14.85C15.44 14.75 15.5 14.63 15.5 14.5C15.5 14.36 15.44 14.24 15.35 14.14C15.25 14.05 15.13 14 15 14L14 14C13.86 14 13.74 14.05 13.64 14.14C13.55 14.24 13.5 14.36 13.5 14.5C13.5 14.63 13.55 14.75 13.64 14.85C13.74 14.94 13.86 15 14 15" stroke="#191919" stroke-opacity="1.000000" stroke-width="2.000000" stroke-linejoin="round"/>
	</g>
</svg>
