<svg width="24.000000" height="24.000000" viewBox="0 0 24 24" fill="none" xmlns="http://www.w3.org/2000/svg" xmlns:xlink="http://www.w3.org/1999/xlink">
	<desc>
			Created with Pixso.
	</desc>
	<defs>
		<clipPath id="clip53_1267">
			<rect id="brand-tiktok" rx="-0.500000" width="23.000000" height="23.000000" transform="translate(0.500000 0.500000)" fill="white" fill-opacity="0"/>
		</clipPath>
	</defs>
	<rect id="brand-tiktok" rx="-0.500000" width="23.000000" height="23.000000" transform="translate(0.500000 0.500000)" fill="#FFFFFF" fill-opacity="0"/>
	<g clip-path="url(#clip53_1267)">
		<path id="Vector" d="M21 11.95C19.18 11.77 17.45 11.09 16 10L16 14.5C15.99 15.72 15.65 16.91 15 17.95C14.35 18.98 13.43 19.81 12.33 20.34C11.23 20.88 10 21.09 8.79 20.95C7.57 20.82 6.42 20.35 5.46 19.59C4.51 18.83 3.78 17.82 3.37 16.67C2.96 15.52 2.88 14.28 3.15 13.09C3.41 11.89 4.01 10.8 4.87 9.93C5.72 9.06 6.81 8.45 8 8.17L8 12.5C7.65 12.75 7.38 13.09 7.21 13.48C7.04 13.87 6.97 14.3 7.01 14.72C7.04 15.14 7.19 15.55 7.43 15.9C7.67 16.26 8 16.54 8.38 16.73C8.76 16.92 9.18 17.01 9.61 16.99C10.03 16.97 10.45 16.85 10.81 16.62C11.17 16.4 11.47 16.08 11.68 15.71C11.89 15.34 12 14.92 12 14.5L12 3L16.08 3C16.29 4.22 16.87 5.36 17.75 6.24C18.63 7.12 19.77 7.7 21 7.91L21 11.95Z" stroke="#191919" stroke-opacity="1.000000" stroke-width="2.000000" stroke-linejoin="round"/>
	</g>
</svg>
