<svg width="24.000000" height="24.000000" viewBox="0 0 24 24" fill="none" xmlns="http://www.w3.org/2000/svg" xmlns:xlink="http://www.w3.org/1999/xlink">
	<desc>
			Created with Pixso.
	</desc>
	<defs>
		<clipPath id="clip53_1269">
			<rect id="brand-youtube" rx="-0.500000" width="23.000000" height="23.000000" transform="translate(0.500000 0.500000)" fill="white" fill-opacity="0"/>
		</clipPath>
	</defs>
	<rect id="brand-youtube" rx="-0.500000" width="23.000000" height="23.000000" transform="translate(0.500000 0.500000)" fill="#FFFFFF" fill-opacity="0"/>
	<g clip-path="url(#clip53_1269)">
		<path id="Vector" d="M3.17 5.17C3.92 4.42 4.93 4 6 4L18 4C19.06 4 20.07 4.42 20.82 5.17C21.57 5.92 22 6.93 22 8L22 16C22 17.06 21.57 18.07 20.82 18.82C20.07 19.57 19.06 20 18 20L6 20C4.93 20 3.92 19.57 3.17 18.82C2.42 18.07 2 17.06 2 16L2 8C2 6.93 2.42 5.92 3.17 5.17Z" stroke="#191919" stroke-opacity="1.000000" stroke-width="2.000000" stroke-linejoin="round"/>
		<path id="Vector" d="M15 12L10 15L10 9L15 12Z" stroke="#191919" stroke-opacity="1.000000" stroke-width="2.000000" stroke-linejoin="round"/>
	</g>
</svg>
