<svg width="24.000000" height="24.000000" viewBox="0 0 24 24" fill="none" xmlns="http://www.w3.org/2000/svg" xmlns:xlink="http://www.w3.org/1999/xlink">
	<desc>
			Created with Pixso.
	</desc>
	<defs>
		<clipPath id="clip19_384">
			<rect id="calendar-month" rx="-0.500000" width="23.000000" height="23.000000" transform="translate(0.500000 0.500000)" fill="white" fill-opacity="0"/>
		</clipPath>
	</defs>
	<rect id="calendar-month" rx="-0.500000" width="23.000000" height="23.000000" transform="translate(0.500000 0.500000)" fill="#FFFFFF" fill-opacity="0"/>
	<g clip-path="url(#clip19_384)">
		<path id="Vector" d="M4.58 5.58C4.96 5.21 5.46 5 6 5L18 5C18.53 5 19.03 5.21 19.41 5.58C19.78 5.96 20 6.46 20 7L20 19C20 19.53 19.78 20.03 19.41 20.41C19.03 20.78 18.53 21 18 21L6 21C5.46 21 4.96 20.78 4.58 20.41C4.21 20.03 4 19.53 4 19L4 7C4 6.46 4.21 5.96 4.58 5.58Z" stroke="#191919" stroke-opacity="1.000000" stroke-width="2.000000" stroke-linejoin="round"/>
		<path id="Vector" d="M16 3L16 7" stroke="#191919" stroke-opacity="1.000000" stroke-width="2.000000" stroke-linejoin="round" stroke-linecap="round"/>
		<path id="Vector" d="M8 3L8 7" stroke="#191919" stroke-opacity="1.000000" stroke-width="2.000000" stroke-linejoin="round" stroke-linecap="round"/>
		<path id="Vector" d="M4 11L20 11" stroke="#191919" stroke-opacity="1.000000" stroke-width="2.000000" stroke-linejoin="round" stroke-linecap="round"/>
		<path id="Vector" d="M7 14L7.01 14" stroke="#191919" stroke-opacity="1.000000" stroke-width="2.000000" stroke-linejoin="round" stroke-linecap="round"/>
		<path id="Vector" d="M10.01 14L10.01 14" stroke="#191919" stroke-opacity="1.000000" stroke-width="2.000000" stroke-linejoin="round" stroke-linecap="round"/>
		<path id="Vector" d="M13.01 14L13.01 14" stroke="#191919" stroke-opacity="1.000000" stroke-width="2.000000" stroke-linejoin="round" stroke-linecap="round"/>
		<path id="Vector" d="M16.01 14L16.02 14" stroke="#191919" stroke-opacity="1.000000" stroke-width="2.000000" stroke-linejoin="round" stroke-linecap="round"/>
		<path id="Vector" d="M13.01 17L13.02 17" stroke="#191919" stroke-opacity="1.000000" stroke-width="2.000000" stroke-linejoin="round" stroke-linecap="round"/>
		<path id="Vector" d="M7.01 17L7.01 17" stroke="#191919" stroke-opacity="1.000000" stroke-width="2.000000" stroke-linejoin="round" stroke-linecap="round"/>
		<path id="Vector" d="M10.01 17L10.01 17" stroke="#191919" stroke-opacity="1.000000" stroke-width="2.000000" stroke-linejoin="round" stroke-linecap="round"/>
	</g>
</svg>
