<svg width="24.000000" height="24.000000" viewBox="0 0 24 24" fill="none" xmlns="http://www.w3.org/2000/svg" xmlns:xlink="http://www.w3.org/1999/xlink">
	<desc>
			Created with Pixso.
	</desc>
	<defs>
		<clipPath id="clip37_351">
			<rect id="car-crash" rx="-0.500000" width="23.000000" height="23.000000" transform="translate(0.500000 0.500000)" fill="white" fill-opacity="0"/>
		</clipPath>
	</defs>
	<rect id="car-crash" rx="-0.500000" width="23.000000" height="23.000000" transform="translate(0.500000 0.500000)" fill="#FFFFFF" fill-opacity="0"/>
	<g clip-path="url(#clip37_351)">
		<path id="Vector" d="M8.58 18.41C8.96 18.78 9.46 19 10 19C10.53 19 11.03 18.78 11.41 18.41C11.78 18.03 12 17.53 12 17C12 16.46 11.78 15.96 11.41 15.58C11.03 15.21 10.53 15 10 15C9.46 15 8.96 15.21 8.58 15.58C8.21 15.96 8 16.46 8 17C8 17.53 8.21 18.03 8.58 18.41Z" stroke="#191919" stroke-opacity="1.000000" stroke-width="2.000000" stroke-linejoin="round"/>
		<path id="Vector" d="M3 6L7 6L11 11M3 11L11 11L12 11C12.53 11 13.03 11.21 13.41 11.58C13.78 11.96 14 12.46 14 13L14 17L12 17M8 17L3 17M5 11L5 6" stroke="#191919" stroke-opacity="1.000000" stroke-width="2.000000" stroke-linejoin="round" stroke-linecap="round"/>
		<path id="Vector" d="M14 8L14 6" stroke="#191919" stroke-opacity="1.000000" stroke-width="2.000000" stroke-linejoin="round" stroke-linecap="round"/>
		<path id="Vector" d="M19 12L21 12" stroke="#191919" stroke-opacity="1.000000" stroke-width="2.000000" stroke-linejoin="round" stroke-linecap="round"/>
		<path id="Vector" d="M17.5 15.5L19 17" stroke="#191919" stroke-opacity="1.000000" stroke-width="2.000000" stroke-linejoin="round" stroke-linecap="round"/>
		<path id="Vector" d="M17.5 8.5L19 7" stroke="#191919" stroke-opacity="1.000000" stroke-width="2.000000" stroke-linejoin="round" stroke-linecap="round"/>
	</g>
</svg>
