<svg width="24.000000" height="24.000000" viewBox="0 0 24 24" fill="none" xmlns="http://www.w3.org/2000/svg" xmlns:xlink="http://www.w3.org/1999/xlink">
	<desc>
			Created with Pixso.
	</desc>
	<defs>
		<clipPath id="clip327_1085">
			<rect id="car-4wd 1" rx="0.000000" width="23.000000" height="23.000000" transform="translate(0.500000 0.500000)" fill="white" fill-opacity="0"/>
		</clipPath>
	</defs>
	<rect id="car-4wd 1" rx="0.000000" width="23.000000" height="23.000000" transform="translate(0.500000 0.500000)" fill="#FFFFFF" fill-opacity="0"/>
	<g clip-path="url(#clip327_1085)">
		<path id="Vector" d="M5.58 3.58C5.96 3.21 6.46 3 7 3C7.53 3 8.03 3.21 8.41 3.58C8.78 3.96 9 4.46 9 5L9 7C9 7.53 8.78 8.03 8.41 8.41C8.03 8.78 7.53 9 7 9C6.46 9 5.96 8.78 5.58 8.41C5.21 8.03 5 7.53 5 7L5 5C5 4.46 5.21 3.96 5.58 3.58Z" stroke="#999999" stroke-opacity="1.000000" stroke-width="2.000000" stroke-linejoin="round"/>
		<path id="Vector" d="M5.58 15.58C5.96 15.21 6.46 15 7 15C7.53 15 8.03 15.21 8.41 15.58C8.78 15.96 9 16.46 9 17L9 19C9 19.53 8.78 20.03 8.41 20.41C8.03 20.78 7.53 21 7 21C6.46 21 5.96 20.78 5.58 20.41C5.21 20.03 5 19.53 5 19L5 17C5 16.46 5.21 15.96 5.58 15.58Z" stroke="#999999" stroke-opacity="1.000000" stroke-width="2.000000" stroke-linejoin="round"/>
		<path id="Vector" d="M15.58 3.58C15.96 3.21 16.46 3 17 3C17.53 3 18.03 3.21 18.41 3.58C18.78 3.96 19 4.46 19 5L19 7C19 7.53 18.78 8.03 18.41 8.41C18.03 8.78 17.53 9 17 9C16.46 9 15.96 8.78 15.58 8.41C15.21 8.03 15 7.53 15 7L15 5C15 4.46 15.21 3.96 15.58 3.58Z" stroke="#999999" stroke-opacity="1.000000" stroke-width="2.000000" stroke-linejoin="round"/>
		<path id="Vector" d="M15.58 15.58C15.96 15.21 16.46 15 17 15C17.53 15 18.03 15.21 18.41 15.58C18.78 15.96 19 16.46 19 17L19 19C19 19.53 18.78 20.03 18.41 20.41C18.03 20.78 17.53 21 17 21C16.46 21 15.96 20.78 15.58 20.41C15.21 20.03 15 19.53 15 19L15 17C15 16.46 15.21 15.96 15.58 15.58Z" stroke="#999999" stroke-opacity="1.000000" stroke-width="2.000000" stroke-linejoin="round"/>
		<path id="Vector" d="M9 18L15 18" stroke="#999999" stroke-opacity="1.000000" stroke-width="2.000000" stroke-linejoin="round" stroke-linecap="round"/>
		<path id="Vector" d="M9 6L15 6" stroke="#999999" stroke-opacity="1.000000" stroke-width="2.000000" stroke-linejoin="round" stroke-linecap="round"/>
		<path id="Vector" d="M12 6.5L12 6L12 18" stroke="#999999" stroke-opacity="1.000000" stroke-width="2.000000" stroke-linejoin="round" stroke-linecap="round"/>
	</g>
</svg>
