<svg width="24.000000" height="24.000000" viewBox="0 0 24 24" fill="none" xmlns="http://www.w3.org/2000/svg" xmlns:xlink="http://www.w3.org/1999/xlink">
	<desc>
			Created with Pixso.
	</desc>
	<defs>
		<clipPath id="clip19_388">
			<rect id="car-turbine" rx="-0.500000" width="23.000000" height="23.000000" transform="translate(0.500000 0.500000)" fill="white" fill-opacity="0"/>
		</clipPath>
	</defs>
	<rect id="car-turbine" rx="-0.500000" width="23.000000" height="23.000000" transform="translate(0.500000 0.500000)" fill="#FFFFFF" fill-opacity="0"/>
	<g clip-path="url(#clip19_388)">
		<path id="Vector" d="M8.17 15.82C8.92 16.57 9.93 17 11 17C12.06 17 13.07 16.57 13.82 15.82C14.57 15.07 15 14.06 15 13C15 11.93 14.57 10.92 13.82 10.17C13.07 9.42 12.06 9 11 9C9.93 9 8.92 9.42 8.17 10.17C7.42 10.92 7 11.93 7 13C7 14.06 7.42 15.07 8.17 15.82Z" stroke="#191919" stroke-opacity="1.000000" stroke-width="2.000000" stroke-linejoin="round"/>
		<path id="Vector" d="M18.86 11C18.94 11.66 19 12.51 19 13C19 14.58 18.53 16.12 17.65 17.44C16.77 18.76 15.52 19.78 14.06 20.39C12.59 20.99 10.99 21.15 9.43 20.84C7.88 20.53 6.46 19.77 5.34 18.65C4.22 17.53 3.46 16.11 3.15 14.56C2.84 13 3 11.4 3.6 9.93C4.21 8.47 5.23 7.22 6.55 6.34C7.87 5.46 9.41 5 11 5L17 5" stroke="#191919" stroke-opacity="1.000000" stroke-width="2.000000" stroke-linejoin="round" stroke-linecap="round"/>
		<path id="Vector" d="M11 9C13.48 9.1 15.48 9.1 17 9" stroke="#191919" stroke-opacity="1.000000" stroke-width="2.000000" stroke-linejoin="round" stroke-linecap="round"/>
		<path id="Vector" d="M17.29 3.29C17.48 3.1 17.73 3 18 3L20 3C20.26 3 20.51 3.1 20.7 3.29C20.89 3.48 21 3.73 21 4L21 10C21 10.26 20.89 10.51 20.7 10.7C20.51 10.89 20.26 11 20 11L18 11C17.73 11 17.48 10.89 17.29 10.7C17.1 10.51 17 10.26 17 10L17 4C17 3.73 17.1 3.48 17.29 3.29Z" stroke="#191919" stroke-opacity="1.000000" stroke-width="2.000000" stroke-linejoin="round"/>
		<path id="Vector" d="M11 13L7.5 11.5" stroke="#191919" stroke-opacity="1.000000" stroke-width="2.000000" stroke-linejoin="round" stroke-linecap="round"/>
		<path id="Vector" d="M11 13L13.5 16" stroke="#191919" stroke-opacity="1.000000" stroke-width="2.000000" stroke-linejoin="round" stroke-linecap="round"/>
		<path id="Vector" d="M8.5 16L11 13" stroke="#191919" stroke-opacity="1.000000" stroke-width="2.000000" stroke-linejoin="round" stroke-linecap="round"/>
		<path id="Vector" d="M11 13L14.5 11.5" stroke="#191919" stroke-opacity="1.000000" stroke-width="2.000000" stroke-linejoin="round" stroke-linecap="round"/>
		<path id="Vector" d="M11 9L11 13" stroke="#191919" stroke-opacity="1.000000" stroke-width="2.000000" stroke-linejoin="round" stroke-linecap="round"/>
	</g>
</svg>
