<svg width="24.000000" height="24.000000" viewBox="0 0 24 24" fill="none" xmlns="http://www.w3.org/2000/svg" xmlns:xlink="http://www.w3.org/1999/xlink">
	<desc>
			Created with Pixso.
	</desc>
	<defs>
		<clipPath id="clip20_969">
			<rect id="car" rx="-0.500000" width="23.000000" height="23.000000" transform="translate(0.500000 0.500000)" fill="white" fill-opacity="0"/>
		</clipPath>
	</defs>
	<rect id="car" rx="-0.500000" width="23.000000" height="23.000000" transform="translate(0.500000 0.500000)" fill="#FFFFFF" fill-opacity="0"/>
	<g clip-path="url(#clip20_969)">
		<path id="Vector" d="M5.58 18.41C5.96 18.78 6.46 19 7 19C7.53 19 8.03 18.78 8.41 18.41C8.78 18.03 9 17.53 9 17C9 16.46 8.78 15.96 8.41 15.58C8.03 15.21 7.53 15 7 15C6.46 15 5.96 15.21 5.58 15.58C5.21 15.96 5 16.46 5 17C5 17.53 5.21 18.03 5.58 18.41Z" stroke="#191919" stroke-opacity="1.000000" stroke-width="2.000000" stroke-linejoin="round"/>
		<path id="Vector" d="M15.58 18.41C15.96 18.78 16.46 19 17 19C17.53 19 18.03 18.78 18.41 18.41C18.78 18.03 19 17.53 19 17C19 16.46 18.78 15.96 18.41 15.58C18.03 15.21 17.53 15 17 15C16.46 15 15.96 15.21 15.58 15.58C15.21 15.96 15 16.46 15 17C15 17.53 15.21 18.03 15.58 18.41Z" stroke="#191919" stroke-opacity="1.000000" stroke-width="2.000000" stroke-linejoin="round"/>
		<path id="Vector" d="M5 17L3 17L3 11L5 6L14 6L18 11M3 11L18 11L19 11C19.53 11 20.03 11.21 20.41 11.58C20.78 11.96 21 12.46 21 13L21 17L19 17M15 17L9 17M12 11L12 6" stroke="#191919" stroke-opacity="1.000000" stroke-width="2.000000" stroke-linejoin="round" stroke-linecap="round"/>
	</g>
</svg>
