<svg width="24.000000" height="24.000000" viewBox="0 0 24 24" fill="none" xmlns="http://www.w3.org/2000/svg" xmlns:xlink="http://www.w3.org/1999/xlink">
	<desc>
			Created with Pixso.
	</desc>
	<defs>
		<clipPath id="clip121_2419">
			<rect id="cash" rx="-0.500000" width="23.000000" height="23.000000" transform="translate(0.500000 0.500000)" fill="white" fill-opacity="0"/>
		</clipPath>
	</defs>
	<rect id="cash" rx="-0.500000" width="23.000000" height="23.000000" transform="translate(0.500000 0.500000)" fill="#FFFFFF" fill-opacity="0"/>
	<g clip-path="url(#clip121_2419)">
		<path id="Vector" d="M7.58 9.58C7.96 9.21 8.46 9 9 9L19 9C19.53 9 20.03 9.21 20.41 9.58C20.78 9.96 21 10.46 21 11L21 17C21 17.53 20.78 18.03 20.41 18.41C20.03 18.78 19.53 19 19 19L9 19C8.46 19 7.96 18.78 7.58 18.41C7.21 18.03 7 17.53 7 17L7 11C7 10.46 7.21 9.96 7.58 9.58Z" stroke="#191919" stroke-opacity="1.000000" stroke-width="2.000000" stroke-linejoin="round"/>
		<path id="Vector" d="M12.58 15.41C12.96 15.78 13.46 16 14 16C14.53 16 15.03 15.78 15.41 15.41C15.78 15.03 16 14.53 16 14C16 13.46 15.78 12.96 15.41 12.58C15.03 12.21 14.53 12 14 12C13.46 12 12.96 12.21 12.58 12.58C12.21 12.96 12 13.46 12 14C12 14.53 12.21 15.03 12.58 15.41Z" stroke="#191919" stroke-opacity="1.000000" stroke-width="2.000000" stroke-linejoin="round"/>
		<path id="Vector" d="M17 9L17 7C17 6.46 16.78 5.96 16.41 5.58C16.03 5.21 15.53 5 15 5L5 5C4.46 5 3.96 5.21 3.58 5.58C3.21 5.96 3 6.46 3 7L3 13C3 13.53 3.21 14.03 3.58 14.41C3.96 14.78 4.46 15 5 15L7 15" stroke="#191919" stroke-opacity="1.000000" stroke-width="2.000000" stroke-linejoin="round" stroke-linecap="round"/>
	</g>
</svg>
