<svg width="24.000000" height="24.000000" viewBox="0 0 24 24" fill="none" xmlns="http://www.w3.org/2000/svg" xmlns:xlink="http://www.w3.org/1999/xlink">
	<desc>
			Created with Pixso.
	</desc>
	<defs>
		<clipPath id="clip121_2400">
			<rect id="currency-bitcoin 1" rx="-0.500000" width="23.000000" height="23.000000" transform="translate(0.500000 0.500000)" fill="white" fill-opacity="0"/>
		</clipPath>
	</defs>
	<rect id="currency-bitcoin 1" rx="-0.500000" width="23.000000" height="23.000000" transform="translate(0.500000 0.500000)" fill="#FFFFFF" fill-opacity="0"/>
	<g clip-path="url(#clip121_2400)">
		<path id="Vector" d="M6 6L14 6C14.79 6 15.55 6.31 16.12 6.87C16.68 7.44 17 8.2 17 9C17 9.79 16.68 10.55 16.12 11.12C15.55 11.68 14.79 12 14 12C14.79 12 15.55 12.31 16.12 12.87C16.68 13.44 17 14.2 17 15C17 15.79 16.68 16.55 16.12 17.12C15.55 17.68 14.79 18 14 18L6 18" stroke="#191919" stroke-opacity="1.000000" stroke-width="2.000000" stroke-linejoin="round" stroke-linecap="round"/>
		<path id="Vector" d="M8 6L8 18" stroke="#191919" stroke-opacity="1.000000" stroke-width="2.000000" stroke-linejoin="round" stroke-linecap="round"/>
		<path id="Vector" d="M8 12L14 12" stroke="#191919" stroke-opacity="1.000000" stroke-width="2.000000" stroke-linejoin="round" stroke-linecap="round"/>
		<path id="Vector" d="M9 3L9 6" stroke="#191919" stroke-opacity="1.000000" stroke-width="2.000000" stroke-linejoin="round" stroke-linecap="round"/>
		<path id="Vector" d="M13 3L13 6" stroke="#191919" stroke-opacity="1.000000" stroke-width="2.000000" stroke-linejoin="round" stroke-linecap="round"/>
		<path id="Vector" d="M9 18L9 21" stroke="#191919" stroke-opacity="1.000000" stroke-width="2.000000" stroke-linejoin="round" stroke-linecap="round"/>
		<path id="Vector" d="M13 18L13 21" stroke="#191919" stroke-opacity="1.000000" stroke-width="2.000000" stroke-linejoin="round" stroke-linecap="round"/>
	</g>
</svg>
