<svg width="24.000000" height="24.000000" viewBox="0 0 24 24" fill="none" xmlns="http://www.w3.org/2000/svg" xmlns:xlink="http://www.w3.org/1999/xlink">
	<desc>
			Created with Pixso.
	</desc>
	<defs>
		<clipPath id="clip19_385">
			<rect id="dashboard" rx="-0.500000" width="23.000000" height="23.000000" transform="translate(0.500000 0.500000)" fill="white" fill-opacity="0"/>
		</clipPath>
	</defs>
	<rect id="dashboard" rx="-0.500000" width="23.000000" height="23.000000" transform="translate(0.500000 0.500000)" fill="#FFFFFF" fill-opacity="0"/>
	<g clip-path="url(#clip19_385)">
		<path id="Vector" d="M10.58 14.41C10.96 14.78 11.46 15 12 15C12.53 15 13.03 14.78 13.41 14.41C13.78 14.03 14 13.53 14 13C14 12.46 13.78 11.96 13.41 11.58C13.03 11.21 12.53 11 12 11C11.46 11 10.96 11.21 10.58 11.58C10.21 11.96 10 12.46 10 13C10 13.53 10.21 14.03 10.58 14.41Z" stroke="#191919" stroke-opacity="1.000000" stroke-width="2.000000" stroke-linejoin="round"/>
		<path id="Vector" d="M13.45 11.55L15.5 9.5" stroke="#191919" stroke-opacity="1.000000" stroke-width="2.000000" stroke-linejoin="round" stroke-linecap="round"/>
		<path id="Vector" d="M3.35 15.45C2.83 13.66 2.88 11.75 3.5 9.98C4.11 8.22 5.26 6.69 6.78 5.61C8.31 4.53 10.13 3.95 12 3.95C13.86 3.95 15.68 4.53 17.21 5.61C18.73 6.69 19.88 8.22 20.49 9.98C21.11 11.75 21.16 13.66 20.64 15.45C20.12 17.25 19.06 18.83 17.6 20L6.4 20C4.93 18.83 3.87 17.25 3.35 15.45Z" stroke="#191919" stroke-opacity="1.000000" stroke-width="2.000000" stroke-linejoin="round"/>
	</g>
</svg>
