<svg width="24.000000" height="24.000000" viewBox="0 0 24 24" fill="none" xmlns="http://www.w3.org/2000/svg" xmlns:xlink="http://www.w3.org/1999/xlink">
	<desc>
			Created with Pixso.
	</desc>
	<defs>
		<clipPath id="clip19_387">
			<rect id="engine" rx="-0.500000" width="23.000000" height="23.000000" transform="translate(0.500000 0.500000)" fill="white" fill-opacity="0"/>
		</clipPath>
	</defs>
	<rect id="engine" rx="-0.500000" width="23.000000" height="23.000000" transform="translate(0.500000 0.500000)" fill="#FFFFFF" fill-opacity="0"/>
	<g clip-path="url(#clip19_387)">
		<path id="Vector" d="M3 10L3 16" stroke="#191919" stroke-opacity="1.000000" stroke-width="2.000000" stroke-linejoin="round" stroke-linecap="round"/>
		<path id="Vector" d="M12 5L12 8" stroke="#191919" stroke-opacity="1.000000" stroke-width="2.000000" stroke-linejoin="round" stroke-linecap="round"/>
		<path id="Vector" d="M10 5L14 5" stroke="#191919" stroke-opacity="1.000000" stroke-width="2.000000" stroke-linejoin="round" stroke-linecap="round"/>
		<path id="Vector" d="M5 13L3 13" stroke="#191919" stroke-opacity="1.000000" stroke-width="2.000000" stroke-linejoin="round" stroke-linecap="round"/>
		<path id="Vector" d="M8 10L10 8L13.38 8C13.56 8 13.74 8.05 13.9 8.14C14.06 8.24 14.19 8.38 14.27 8.55L15.72 11.44C15.8 11.61 15.93 11.75 16.09 11.85C16.25 11.94 16.43 11.99 16.61 12L18 12L18 10L20 10C20.26 10 20.51 10.1 20.7 10.29C20.89 10.48 21 10.73 21 11L21 17C21 17.26 20.89 17.51 20.7 17.7C20.51 17.89 20.26 18 20 18L18 18L18 16L15 16L15 18C15 18.26 14.89 18.51 14.7 18.7C14.51 18.89 14.26 19 14 19L10.53 19C10.37 19 10.2 18.95 10.06 18.88C9.91 18.8 9.79 18.69 9.7 18.55L8 16L6 16L6 10L8 10Z" stroke="#191919" stroke-opacity="1.000000" stroke-width="2.000000" stroke-linejoin="round"/>
	</g>
</svg>
