<svg width="24.000000" height="24.000000" viewBox="0 0 24 24" fill="none" xmlns="http://www.w3.org/2000/svg" xmlns:xlink="http://www.w3.org/1999/xlink">
	<desc>
			Created with Pixso.
	</desc>
	<defs>
		<clipPath id="clip20_970">
			<rect id="gavel" rx="-0.500000" width="23.000000" height="23.000000" transform="translate(0.500000 0.500000)" fill="white" fill-opacity="0"/>
		</clipPath>
	</defs>
	<rect id="gavel" rx="-0.500000" width="23.000000" height="23.000000" transform="translate(0.500000 0.500000)" fill="#FFFFFF" fill-opacity="0"/>
	<g clip-path="url(#clip20_970)">
		<path id="Vector" d="M13 10L20.38 17.41C21.2 18.23 21.2 19.56 20.38 20.38C19.98 20.77 19.45 20.99 18.89 20.99C18.33 20.99 17.8 20.77 17.4 20.38L10 13" stroke="#191919" stroke-opacity="1.000000" stroke-width="2.000000" stroke-linejoin="round" stroke-linecap="round"/>
		<path id="Vector" d="M6 9L10 13" stroke="#191919" stroke-opacity="1.000000" stroke-width="2.000000" stroke-linejoin="round" stroke-linecap="round"/>
		<path id="Vector" d="M13 10L9 6" stroke="#191919" stroke-opacity="1.000000" stroke-width="2.000000" stroke-linejoin="round" stroke-linecap="round"/>
		<path id="Vector" d="M3 21L10 21" stroke="#191919" stroke-opacity="1.000000" stroke-width="2.000000" stroke-linejoin="round" stroke-linecap="round"/>
		<path id="Vector" d="M3.2 12.2C3.01 12.01 2.91 11.76 2.91 11.5C2.91 11.23 3.01 10.98 3.2 10.79L5.5 8.5L6 9L9 6L8.5 5.5L10.79 3.2C10.98 3.01 11.23 2.91 11.5 2.91C11.76 2.91 12.01 3.01 12.2 3.2L15.79 6.79C15.98 6.98 16.08 7.23 16.08 7.5C16.08 7.76 15.98 8.01 15.79 8.2L13.5 10.5L13 10L10 13L10.5 13.5L8.2 15.79C8.01 15.98 7.76 16.08 7.5 16.08C7.23 16.08 6.98 15.98 6.79 15.79L3.2 12.2Z" stroke="#191919" stroke-opacity="1.000000" stroke-width="2.000000" stroke-linejoin="round"/>
	</g>
</svg>
