<svg width="24.000000" height="24.000000" viewBox="0 0 24 24" fill="#FFf" xmlns="http://www.w3.org/2000/svg" xmlns:xlink="http://www.w3.org/1999/xlink">
	<desc>
			Created with Pixso.
	</desc>
	<defs>
		<clipPath id="clip14_149">
			<rect id="like" rx="-0.500000" width="23.000000" height="23.000000" transform="translate(0.500000 0.500000)" fill="white" fill-opacity="0"/>
		</clipPath>
	</defs>
	<rect id="like" rx="-0.500000" width="23.000000" height="23.000000" transform="translate(0.500000 0.500000)" fill="#FFFFFF" fill-opacity="0"/>
	<g clip-path="url(#clip14_149)">
		<path id="Vector" d="M19.5 12.57L12 20L4.5 12.57C4 12.09 3.61 11.51 3.35 10.87C3.09 10.23 2.97 9.54 2.98 8.85C3 8.16 3.16 7.48 3.46 6.86C3.75 6.23 4.17 5.68 4.69 5.22C5.21 4.77 5.82 4.42 6.47 4.22C7.13 4.01 7.83 3.94 8.51 4.01C9.2 4.09 9.86 4.3 10.46 4.64C11.06 4.98 11.58 5.45 12 6C12.41 5.45 12.93 4.99 13.53 4.65C14.13 4.31 14.79 4.1 15.48 4.03C16.16 3.96 16.85 4.03 17.51 4.24C18.16 4.45 18.77 4.79 19.29 5.25C19.8 5.7 20.22 6.25 20.52 6.88C20.81 7.5 20.97 8.18 20.99 8.86C21.01 9.55 20.89 10.24 20.63 10.87C20.37 11.51 19.99 12.09 19.5 12.57" stroke="#191919" stroke-opacity="1.000000" stroke-width="2.000000" stroke-linejoin="round" stroke-linecap="round"/>
	</g>
</svg>
