<svg width="24.000000" height="24.000000" viewBox="0 0 24 24" fill="none" xmlns="http://www.w3.org/2000/svg" xmlns:xlink="http://www.w3.org/1999/xlink">
	<desc>
			Created with Pixso.
	</desc>
	<defs>
		<clipPath id="clip19_379">
			<rect id="manual-gearbox" rx="-0.500000" width="23.000000" height="23.000000" transform="translate(0.500000 0.500000)" fill="white" fill-opacity="0"/>
		</clipPath>
	</defs>
	<rect id="manual-gearbox" rx="-0.500000" width="23.000000" height="23.000000" transform="translate(0.500000 0.500000)" fill="#FFFFFF" fill-opacity="0"/>
	<g clip-path="url(#clip19_379)">
		<path id="Vector" d="M3.58 7.41C3.96 7.78 4.46 8 5 8C5.53 8 6.03 7.78 6.41 7.41C6.78 7.03 7 6.53 7 6C7 5.46 6.78 4.96 6.41 4.58C6.03 4.21 5.53 4 5 4C4.46 4 3.96 4.21 3.58 4.58C3.21 4.96 3 5.46 3 6C3 6.53 3.21 7.03 3.58 7.41Z" stroke="#191919" stroke-opacity="1.000000" stroke-width="2.000000" stroke-linejoin="round"/>
		<path id="Vector" d="M10.58 7.41C10.96 7.78 11.46 8 12 8C12.53 8 13.03 7.78 13.41 7.41C13.78 7.03 14 6.53 14 6C14 5.46 13.78 4.96 13.41 4.58C13.03 4.21 12.53 4 12 4C11.46 4 10.96 4.21 10.58 4.58C10.21 4.96 10 5.46 10 6C10 6.53 10.21 7.03 10.58 7.41Z" stroke="#191919" stroke-opacity="1.000000" stroke-width="2.000000" stroke-linejoin="round"/>
		<path id="Vector" d="M17.58 7.41C17.96 7.78 18.46 8 19 8C19.53 8 20.03 7.78 20.41 7.41C20.78 7.03 21 6.53 21 6C21 5.46 20.78 4.96 20.41 4.58C20.03 4.21 19.53 4 19 4C18.46 4 17.96 4.21 17.58 4.58C17.21 4.96 17 5.46 17 6C17 6.53 17.21 7.03 17.58 7.41Z" stroke="#191919" stroke-opacity="1.000000" stroke-width="2.000000" stroke-linejoin="round"/>
		<path id="Vector" d="M3.58 19.41C3.96 19.78 4.46 20 5 20C5.53 20 6.03 19.78 6.41 19.41C6.78 19.03 7 18.53 7 18C7 17.46 6.78 16.96 6.41 16.58C6.03 16.21 5.53 16 5 16C4.46 16 3.96 16.21 3.58 16.58C3.21 16.96 3 17.46 3 18C3 18.53 3.21 19.03 3.58 19.41Z" stroke="#191919" stroke-opacity="1.000000" stroke-width="2.000000" stroke-linejoin="round"/>
		<path id="Vector" d="M10.58 19.41C10.96 19.78 11.46 20 12 20C12.53 20 13.03 19.78 13.41 19.41C13.78 19.03 14 18.53 14 18C14 17.46 13.78 16.96 13.41 16.58C13.03 16.21 12.53 16 12 16C11.46 16 10.96 16.21 10.58 16.58C10.21 16.96 10 17.46 10 18C10 18.53 10.21 19.03 10.58 19.41Z" stroke="#191919" stroke-opacity="1.000000" stroke-width="2.000000" stroke-linejoin="round"/>
		<path id="Vector" d="M5 8L5 16" stroke="#191919" stroke-opacity="1.000000" stroke-width="2.000000" stroke-linejoin="round" stroke-linecap="round"/>
		<path id="Vector" d="M12 8L12 16" stroke="#191919" stroke-opacity="1.000000" stroke-width="2.000000" stroke-linejoin="round" stroke-linecap="round"/>
		<path id="Vector" d="M19 8L19 10C19 10.53 18.78 11.03 18.41 11.41C18.03 11.78 17.53 12 17 12L5 12" stroke="#191919" stroke-opacity="1.000000" stroke-width="2.000000" stroke-linejoin="round" stroke-linecap="round"/>
	</g>
</svg>
