<svg width="24.000000" height="24.000000" viewBox="0 0 24 24" fill="none" xmlns="http://www.w3.org/2000/svg" xmlns:xlink="http://www.w3.org/1999/xlink">
	<desc>
			Created with Pixso.
	</desc>
	<defs>
		<clipPath id="clip57_583">
			<rect id="phone 1" rx="-0.500000" width="23.000000" height="23.000000" transform="translate(0.500000 0.500000)" fill="white" fill-opacity="0"/>
		</clipPath>
	</defs>
	<rect id="phone 1" rx="-0.500000" width="23.000000" height="23.000000" transform="translate(0.500000 0.500000)" fill="#FFFFFF" fill-opacity="0"/>
	<g clip-path="url(#clip57_583)">
		<path id="Vector" d="M9 4L11 9L8.5 10.5C9.57 12.67 11.32 14.42 13.5 15.5L15 13L20 15L20 19C20 19.53 19.78 20.03 19.41 20.41C19.03 20.78 18.53 21 18 21C14.09 20.76 10.42 19.1 7.65 16.34C4.89 13.57 3.23 9.9 3 6C3 5.46 3.21 4.96 3.58 4.58C3.96 4.21 4.46 4 5 4L9 4Z" stroke="#191919" stroke-opacity="1.000000" stroke-width="2.000000" stroke-linejoin="round"/>
	</g>
</svg>
