<svg width="24.000000" height="24.000000" viewBox="0 0 24 24" fill="none" xmlns="http://www.w3.org/2000/svg" xmlns:xlink="http://www.w3.org/1999/xlink">
	<desc>
			Created with Pixso.
	</desc>
	<defs>
		<clipPath id="clip20_971">
			<rect id="report-money" rx="-0.500000" width="23.000000" height="23.000000" transform="translate(0.500000 0.500000)" fill="white" fill-opacity="0"/>
		</clipPath>
	</defs>
	<rect id="report-money" rx="-0.500000" width="23.000000" height="23.000000" transform="translate(0.500000 0.500000)" fill="#FFFFFF" fill-opacity="0"/>
	<g clip-path="url(#clip20_971)">
		<path id="Vector" d="M9 5L7 5C6.46 5 5.96 5.21 5.58 5.58C5.21 5.96 5 6.46 5 7L5 19C5 19.53 5.21 20.03 5.58 20.41C5.96 20.78 6.46 21 7 21L17 21C17.53 21 18.03 20.78 18.41 20.41C18.78 20.03 19 19.53 19 19L19 7C19 6.46 18.78 5.96 18.41 5.58C18.03 5.21 17.53 5 17 5L15 5" stroke="#191919" stroke-opacity="1.000000" stroke-width="2.000000" stroke-linejoin="round" stroke-linecap="round"/>
		<path id="Vector" d="M9.58 3.58C9.96 3.21 10.46 3 11 3L13 3C13.53 3 14.03 3.21 14.41 3.58C14.78 3.96 15 4.46 15 5C15 5.53 14.78 6.03 14.41 6.41C14.03 6.78 13.53 7 13 7L11 7C10.46 7 9.96 6.78 9.58 6.41C9.21 6.03 9 5.53 9 5C9 4.46 9.21 3.96 9.58 3.58Z" stroke="#191919" stroke-opacity="1.000000" stroke-width="2.000000" stroke-linejoin="round"/>
		<path id="Vector" d="M14 11L11.5 11C11.1 11 10.72 11.15 10.43 11.43C10.15 11.72 10 12.1 10 12.5C10 12.89 10.15 13.27 10.43 13.56C10.72 13.84 11.1 14 11.5 14L12.5 14C12.89 14 13.27 14.15 13.56 14.43C13.84 14.72 14 15.1 14 15.5C14 15.89 13.84 16.27 13.56 16.56C13.27 16.84 12.89 17 12.5 17L10 17" stroke="#191919" stroke-opacity="1.000000" stroke-width="2.000000" stroke-linejoin="round" stroke-linecap="round"/>
		<path id="Vector" d="M12 17L12 18M12 10L12 11" stroke="#191919" stroke-opacity="1.000000" stroke-width="2.000000" stroke-linejoin="round" stroke-linecap="round"/>
	</g>
</svg>
