<svg width="16.000000" height="15.000000" viewBox="0 0 16 15" fill="none" xmlns="http://www.w3.org/2000/svg" xmlns:xlink="http://www.w3.org/1999/xlink">
	<desc>
			Created with Pixso.
	</desc>
	<defs>
		<clipPath id="clip53_1271">
			<rect id="star" rx="-0.500000" width="15.000000" height="14.000000" transform="translate(0.500000 0.500000)" fill="white" fill-opacity="0"/>
		</clipPath>
	</defs>
	<rect id="star" rx="-0.500000" width="15.000000" height="14.000000" transform="translate(0.500000 0.500000)" fill="#FFFFFF" fill-opacity="0"/>
	<g clip-path="url(#clip53_1271)">
		<path id="Vector" d="M7.04 0.55C7.15 0.22 7.46 -0.01 7.8 -0.01C8.15 -0.01 8.45 0.22 8.56 0.55L9.9 4.67C9.94 4.79 10.02 4.9 10.12 4.97C10.22 5.05 10.35 5.09 10.47 5.09L14.81 5.09C15.16 5.09 15.46 5.31 15.57 5.64C15.68 5.97 15.56 6.33 15.28 6.53L11.77 9.08C11.67 9.15 11.59 9.26 11.55 9.38C11.51 9.5 11.51 9.63 11.55 9.75L12.89 13.88C13 14.21 12.88 14.57 12.6 14.77C12.32 14.97 11.94 14.97 11.66 14.77L8.16 12.22C8.05 12.15 7.93 12.1 7.8 12.1C7.67 12.1 7.55 12.15 7.45 12.22L3.94 14.77C3.66 14.97 3.28 14.97 3 14.77C2.72 14.57 2.6 14.21 2.71 13.88L4.05 9.75C4.09 9.63 4.09 9.5 4.05 9.38C4.01 9.26 3.94 9.15 3.83 9.08L0.32 6.53C0.04 6.33 -0.07 5.97 0.03 5.64C0.14 5.31 0.45 5.09 0.79 5.09L5.13 5.09C5.26 5.09 5.38 5.05 5.48 4.97C5.59 4.9 5.67 4.79 5.7 4.67L7.04 0.55Z" fill="#FBD033" fill-opacity="1.000000" fill-rule="evenodd"/>
	</g>
</svg>
